<?xml version="1.0" encoding="UTF-8"?>
<svg width="143px" height="46px" viewBox="0 0 143 46" version="1.1" xmlns="http://www.w3.org/2000/svg" xmlns:xlink="http://www.w3.org/1999/xlink">
    <!-- Generator: Sketch 47.1 (45422) - http://www.bohemiancoding.com/sketch -->
    <title>metageek_primarylogo</title>
    <desc>Created with Sketch.</desc>
    <defs></defs>
    <g id="Page-1" stroke="none" stroke-width="1" fill="none" fill-rule="evenodd">
        <g id="metageek_primarylogo">
            <polyline id="Fill-1" fill="#00568A" points="128.993 23.467 128.993 24.966 131.132 24.966 131.132 39.325 128.993 39.325 128.993 40.82 134.667 40.82 134.667 39.325 132.731 39.325 132.731 34.157 137.905 39.325 136.104 39.325 136.104 40.82 142.396 40.82 142.396 39.325 140.106 39.325 134.694 33.915 139.506 29.56 141.577 29.56 141.577 28.06 135.549 28.06 135.549 29.56 137.459 29.56 132.731 33.742 132.731 23.467 128.993 23.467"></polyline>
            <path d="M56.774,37.214 L58.474,37.214 C57.849,38.501 56.986,39.477 55.88,40.154 C54.767,40.825 53.598,41.16 52.325,41.16 C51.169,41.16 50.05,40.865 48.954,40.281 C47.869,39.684 47.031,38.865 46.433,37.817 C45.839,36.776 45.534,35.663 45.534,34.471 C45.534,32.626 46.199,31.04 47.508,29.732 C48.833,28.416 50.409,27.756 52.242,27.756 C53.428,27.756 54.568,28.061 55.668,28.662 C56.768,29.265 57.597,30.097 58.166,31.158 C58.736,32.22 59.014,33.31 59.014,34.422 C59.014,34.544 59.014,34.723 59.004,34.964 L47.14,34.964 C47.311,36.402 47.869,37.552 48.833,38.426 C49.805,39.304 50.962,39.739 52.296,39.739 C53.251,39.739 54.103,39.53 54.84,39.103 C55.59,38.685 56.238,38.058 56.774,37.214 M57.516,33.679 C57.29,32.357 56.684,31.278 55.705,30.44 C54.717,29.604 53.569,29.186 52.259,29.186 C51.002,29.186 49.881,29.607 48.91,30.451 C47.931,31.29 47.343,32.365 47.14,33.679 L57.516,33.679" id="Fill-2" fill="#00568A"></path>
            <polyline id="Fill-3" fill="#00568A" points="63.955 29.559 63.955 40.82 62.352 40.82 62.352 29.559 59.9 29.559 59.9 28.061 62.352 28.061 62.352 23.467 63.955 23.467 63.955 28.061 66.402 28.061 66.402 29.559 63.955 29.559"></polyline>
            <path d="M80.348,39.325 L82.482,39.325 L82.482,40.82 L78.745,40.82 L78.745,38.133 C78.151,39.089 77.53,39.779 76.881,40.209 C75.906,40.844 74.833,41.161 73.644,41.161 C72.537,41.161 71.471,40.871 70.439,40.301 C69.412,39.703 68.607,38.887 68.02,37.818 C67.436,36.759 67.137,35.649 67.137,34.504 C67.137,33.348 67.436,32.247 68.02,31.154 C68.607,30.07 69.404,29.23 70.439,28.645 C71.462,28.053 72.537,27.756 73.686,27.756 C74.868,27.756 75.906,28.06 76.828,28.667 C77.512,29.112 78.151,29.819 78.745,30.764 L78.745,28.06 L80.348,28.06 L80.348,39.325 Z M78.779,34.428 C78.779,33.013 78.29,31.801 77.306,30.811 C76.326,29.819 75.145,29.319 73.774,29.319 C72.405,29.319 71.225,29.822 70.256,30.827 C69.264,31.825 68.775,33.04 68.775,34.471 C68.775,35.901 69.264,37.11 70.248,38.104 C71.225,39.103 72.4,39.598 73.765,39.598 C75.137,39.598 76.311,39.103 77.295,38.098 C78.283,37.094 78.779,35.884 78.779,34.428 L78.779,34.428 Z" id="Fill-4" fill="#00568A"></path>
            <path d="M84.42,42.123 L86.272,42.123 C86.714,42.883 87.308,43.454 88.053,43.845 C88.796,44.234 89.595,44.437 90.438,44.437 C91.286,44.437 92.107,44.215 92.881,43.803 C93.658,43.383 94.253,42.805 94.68,42.065 C95.11,41.315 95.311,40.513 95.311,39.641 L95.311,37.931 C94.735,38.982 94.06,39.741 93.352,40.209 C92.368,40.843 91.294,41.16 90.121,41.16 C89.036,41.16 87.958,40.865 86.919,40.281 C85.875,39.684 85.053,38.857 84.467,37.797 C83.879,36.729 83.582,35.628 83.582,34.463 C83.582,33.314 83.879,32.202 84.467,31.133 C85.053,30.067 85.875,29.23 86.905,28.644 C87.951,28.053 89.024,27.756 90.132,27.756 C91.257,27.756 92.258,28.016 93.125,28.544 C93.992,29.061 94.735,29.838 95.311,30.85 L95.311,28.06 L99,28.06 L99,29.56 L96.852,29.56 L96.852,39.282 C96.852,40.601 96.599,41.758 96.109,42.732 C95.61,43.705 94.842,44.498 93.781,45.099 C92.719,45.695 91.573,46 90.347,46 C88.961,46 87.729,45.645 86.67,44.937 C85.617,44.22 84.867,43.29 84.42,42.123 M95.355,34.471 C95.355,33.027 94.856,31.808 93.862,30.82 C92.868,29.823 91.678,29.32 90.287,29.32 C88.897,29.32 87.696,29.825 86.708,30.833 C85.71,31.832 85.208,33.043 85.208,34.471 C85.208,35.887 85.71,37.095 86.708,38.097 C87.696,39.103 88.897,39.598 90.287,39.598 C91.678,39.598 92.868,39.103 93.862,38.104 C94.856,37.111 95.355,35.902 95.355,34.471" id="Fill-5" fill="#00568A"></path>
            <path d="M110.882,37.214 L112.59,37.214 C111.959,38.501 111.101,39.477 109.988,40.154 C108.893,40.825 107.705,41.16 106.438,41.16 C105.286,41.16 104.167,40.865 103.073,40.281 C101.985,39.684 101.146,38.865 100.551,37.817 C99.947,36.776 99.648,35.663 99.648,34.471 C99.648,32.626 100.303,31.04 101.628,29.732 C102.939,28.416 104.528,27.756 106.354,27.756 C107.55,27.756 108.689,28.061 109.779,28.662 C110.875,29.265 111.716,30.097 112.275,31.158 C112.844,32.22 113.125,33.31 113.125,34.422 C113.125,34.544 113.125,34.723 113.114,34.964 L101.253,34.964 C101.408,36.402 101.979,37.552 102.95,38.426 C103.923,39.304 105.07,39.739 106.387,39.739 C107.353,39.739 108.209,39.53 108.956,39.103 C109.71,38.685 110.347,38.058 110.882,37.214 M111.629,33.679 C111.404,32.357 110.809,31.278 109.822,30.44 C108.834,29.604 107.687,29.186 106.365,29.186 C105.114,29.186 104.001,29.607 103.02,30.451 C102.046,31.29 101.464,32.365 101.253,33.679 L111.629,33.679" id="Fill-6" fill="#00568A"></path>
            <path d="M126.26,37.214 L127.968,37.214 C127.34,38.501 126.486,39.477 125.381,40.154 C124.274,40.825 123.093,41.16 121.826,41.16 C120.669,41.16 119.538,40.865 118.455,40.281 C117.367,39.684 116.527,38.865 115.934,37.817 C115.33,36.776 115.038,35.663 115.038,34.471 C115.038,32.626 115.683,31.04 117.011,29.732 C118.322,28.416 119.907,27.756 121.746,27.756 C122.928,27.756 124.065,28.061 125.171,28.662 C126.26,29.265 127.095,30.097 127.656,31.158 C128.234,32.22 128.512,33.31 128.512,34.422 C128.512,34.544 128.512,34.723 128.503,34.964 L116.641,34.964 C116.797,36.402 117.367,37.552 118.331,38.426 C119.303,39.304 120.457,39.739 121.792,39.739 C122.742,39.739 123.595,39.53 124.337,39.103 C125.091,38.685 125.728,38.058 126.26,37.214 M127.017,33.679 C126.802,32.357 126.187,31.278 125.204,30.44 C124.212,29.604 123.059,29.186 121.756,29.186 C120.504,29.186 119.381,29.607 118.407,30.451 C117.432,31.29 116.835,32.365 116.641,33.679 L127.017,33.679" id="Fill-7" fill="#00568A"></path>
            <path d="M44.123,21.732 C43.835,9.792 34.075,0.2 22.068,0.2 C9.88,0.2 0,10.081 0,22.27 C0,34.424 9.83,44.283 21.976,44.334 L21.976,44.337 L44.136,44.337 L44.136,21.732 L44.123,21.732" id="Fill-8" fill="#00568A"></path>
            <path d="M22.771,28.098 L22.771,30.289 C23.234,29.456 23.792,28.831 24.439,28.425 C25.085,28.004 25.823,27.795 26.658,27.795 C27.503,27.795 28.308,28.036 29.039,28.501 C29.78,28.97 30.393,29.731 30.882,30.771 C31.305,29.795 31.912,29.062 32.698,28.556 C33.487,28.046 34.351,27.795 35.284,27.795 C36.175,27.795 37.01,28.039 37.815,28.511 C38.608,28.991 39.195,29.611 39.56,30.371 C39.919,31.146 40.111,32.135 40.111,33.352 L40.111,39.333 L42.252,39.333 L42.252,40.825 L38.518,40.825 L38.518,33.728 C38.518,32.72 38.409,31.973 38.181,31.467 C37.879,30.784 37.448,30.255 36.862,29.899 C36.277,29.541 35.648,29.355 34.982,29.355 C34.029,29.355 33.188,29.693 32.462,30.361 C31.747,31.025 31.394,32.012 31.394,33.324 L31.394,39.333 L33.521,39.333 L33.521,40.825 L27.648,40.825 L27.648,39.333 L29.789,39.333 L29.789,33.661 C29.789,32.222 29.471,31.151 28.815,30.432 C28.158,29.714 27.319,29.355 26.28,29.355 C25.145,29.355 24.281,29.765 23.683,30.578 C23.067,31.399 22.771,32.366 22.771,33.497 L22.771,39.333 L24.901,39.333 L24.901,40.825 L19.034,40.825 L19.034,39.333 L21.175,39.333 L21.175,29.593 L19.034,29.593 L19.034,28.098 L22.771,28.098" id="Fill-9" fill="#FFFFFE"></path>
        </g>
    </g>
</svg>